<?xml version="1.0" encoding="utf-8"?>
<!DOCTYPE svg PUBLIC "-//W3C//DTD SVG 1.0//EN" "http://www.w3.org/TR/2001/REC-SVG-20010904/DTD/svg10.dtd">
<svg version="1.0" xmlns="http://www.w3.org/2000/svg" width="800px" height="703px" viewBox="0 0 800 703" preserveAspectRatio="xMidYMid meet">
 <g fill="#134964">
  <path d="M362 692.4 c-2.5 -0.2 -11.7 -0.9 -20.5 -1.5 -79 -5.3 -163.4 -24.9 -240 -55.6 -8.8 -3.5 -17.7 -7.5 -19.8 -8.9 -8.1 -5.4 -13.4 -16.9 -12.4 -27.1 0.4 -3.7 2.6 -9.8 7.2 -19.6 5.9 -12.7 6.4 -14.3 5 -15.4 -1.1 -0.7 -1.5 -1.9 -1.1 -3.1 0.7 -2.1 24.3 -52 26.5 -56 3.3 -6.1 14.2 -6.8 26 -1.7 4.5 1.9 8.1 3.2 8.1 3 0 -0.2 -2 -3.5 -4.4 -7.2 -6.9 -10.7 -18.4 -31.6 -25.3 -46 -6.4 -13.5 -7.8 -18.8 -4.6 -17.6 1.2 0.5 1.5 0.2 1 -0.8 -20.8 -49.4 -33.2 -94.3 -40.6 -147.3 -6.9 -48.6 -8.6 -111 -3.7 -129.7 8.5 -32.2 29.7 -55.6 60.6 -66.8 4.7 -1.7 46.1 -15 92 -29.7 45.9 -14.6 98.8 -31.5 117.5 -37.5 38 -12.1 43.3 -13.5 55.5 -14.4 17.9 -1.4 1.4 -6.1 258.5 74 16.4 5.2 30.6 10.2 36.2 13 26.1 12.9 44.4 36.8 50.4 66 3.3 15.9 2.3 66.5 -2.1 107.1 -6.1 56 -21.5 115.8 -41.8 162.2 -3 6.7 -3.7 9.2 -2.6 9.2 2.9 0 1.2 5.5 -6.6 20.9 -6.7 13.3 -12.6 23.5 -26.3 46 -1.2 1.9 -1.7 3.2 -1.2 2.9 0.6 -0.3 6.3 -2.9 12.9 -5.7 9.7 -4.2 12.9 -5.1 17.6 -5.1 10.1 0 10.4 0.4 26.2 33.9 7.6 16.1 13.8 29.9 13.8 30.7 0 0.8 -0.7 1.4 -1.6 1.4 -2.1 0 -1.9 0.8 5.3 16 5.6 12 5.8 12.8 5.8 20.5 -0.1 8.9 -2.1 14.2 -7.9 20.3 -4 4.4 -7.1 5.9 -29.5 14.7 -72.8 28.6 -147.6 46 -227.6 53.1 -15.8 1.4 -95 2.8 -106.5 1.8z m35 -28.6 c0 -2.9 -0.5 -6 -1 -6.8 -0.7 -1.1 -1 0.5 -1 5.3 0 3.8 0.4 6.7 1 6.7 0.6 0 1 -2.4 1 -5.2z m-31.8 -3.8 c-0.3 -7.8 -0.3 -8 2 -8.1 l2.3 -0.2 -2.2 -0.4 c-1.6 -0.3 -2.3 -1.1 -2.3 -2.9 0 -1.3 -0.4 -2.4 -1 -2.4 -0.5 0 -1 1.1 -1 2.5 0 1.4 -0.6 2.5 -1.2 2.6 -1 0 -1 0.2 0 0.6 0.8 0.3 1.2 2.7 1.2 7.2 0 3.9 0.5 7.2 1.2 7.9 0.7 0.7 1.2 1.2 1.3 1.2 0 0 -0.1 -3.6 -0.3 -8z m46.8 2.2 c0 -3.2 0.5 -6.3 1.2 -7 0.9 -0.9 0.8 -1.2 -0.5 -1.2 -0.9 0 -1.7 -0.4 -1.7 -1 0 -0.5 -0.4 -1 -1 -1 -1.1 0 -1.4 11.8 -0.4 14.4 1.3 3.3 2.4 1.4 2.4 -4.2z m48 3.2 c0 -0.2 -2.1 -0.4 -4.7 -0.3 -3.7 0.1 -4.2 0.3 -2.3 0.8 2.4 0.7 7 0.3 7 -0.5z m31.1 -12.4 c-0.8 -2.1 -1 -1.6 -1 3.1 -0.1 3.1 0.2 5.9 0.7 6.3 1.1 1.2 1.4 -6.7 0.3 -9.4z m-193.8 1.4 c0.4 -3.3 0.1 -5.8 -0.6 -6.8 -1 -1.3 -1.2 0 -1.3 6.5 -0.1 8.7 0.9 8.8 1.9 0.3z m-14.6 -0.6 c0.6 -3.5 1.2 -6.9 1.4 -7.7 0.2 -0.7 -0.1 -1.5 -0.7 -1.7 -0.6 -0.3 -1.4 2.6 -2 7.6 -1.1 9.4 -0.1 10.8 1.3 1.8z m28.3 2.5 c-0.1 -3.1 -0.3 -3.5 -1.1 -2 -0.6 0.9 -0.7 2.6 -0.4 3.7 1 3 1.5 2.4 1.5 -1.7z m134.9 -2 c-0.1 -5.6 -0.1 -5.7 -1.4 -2.9 -0.9 2.1 -1 3.8 -0.3 5.8 0.6 1.5 1.2 2.8 1.4 2.8 0.2 0 0.4 -2.6 0.3 -5.7z m60.5 0 c-0.7 -7.8 -1.3 -10.5 -2.3 -9.9 -0.7 0.5 0.3 11.1 1.4 14.4 1 2.8 1.3 0.9 0.9 -4.5z m14.1 -1.5 c-0.8 -6.1 -2.8 -9.8 -5.3 -9.7 -1.3 0 -1.2 0.2 0.5 0.9 2 0.8 2.4 1.8 3.8 10.3 0.9 5.7 1.8 4.4 1 -1.5z m14.4 -3.4 c-1.2 -7.2 -1.9 -9.7 -2.5 -9.1 -0.4 0.4 0.4 4.9 2.2 13.6 1 4.9 1.3 1.2 0.3 -4.5z m-294 -5.2 c0.7 -3.5 1 -6.6 0.8 -6.9 -0.5 -0.4 -1.4 3.3 -3.3 13.7 -0.4 1.8 -0.3 2.1 0.4 1 0.5 -0.8 1.5 -4.4 2.1 -7.8z m309 4.3 c-0.6 -2.1 -0.9 -5.3 -0.7 -7.1 0.2 -2.1 -0.1 -3.5 -0.9 -3.8 -1.6 -0.6 -1.6 0.7 -0.2 7.6 1.3 6.5 1.8 8.2 2.4 7.6 0.2 -0.2 0 -2.1 -0.6 -4.3z m-295 -2.5 c0.1 -1.3 0 -1.3 -0.9 0 -0.5 0.8 -0.9 2.4 -0.9 3.5 l0 2 0.9 -2 c0.5 -1.1 0.9 -2.7 0.9 -3.5z m309 -2.1 c-1.2 -5.8 -3.2 -8.9 -5.8 -8.9 -1 0 -0.7 0.5 0.9 1.3 1.7 0.8 2.7 2.4 3.2 5.2 1.4 7 1.9 8.7 2.4 8.3 0.2 -0.3 -0.1 -2.9 -0.7 -5.9z m-354.9 -2.3 c0 -2.5 0.4 -4.7 0.9 -5 0.4 -0.3 1.1 -2.9 1.3 -5.7 0.3 -2.8 1.2 -5.5 1.9 -6 1.2 -0.7 1.1 -0.9 -0.2 -0.9 -1.1 0 -2.2 2.7 -4 11 -2 8.6 -2.3 11 -1.2 11 0.9 0 1.3 -1.4 1.3 -4.4z m248.5 1.5 c-1.8 -0.7 -5.5 -0.4 -5.5 0.5 0 0.2 1.7 0.4 3.8 0.3 2.8 0 3.2 -0.2 1.7 -0.8z m119.4 -5.8 c0 -3.3 -0.1 -3.5 -0.9 -1.5 -0.8 2 -0.4 5.2 0.6 5.2 0.2 0 0.4 -1.7 0.3 -3.7z m16.2 -2 c-0.9 -1.5 -1 -1.2 -1 1.7 0 2.9 0.1 3.2 1 1.8 0.7 -1.2 0.7 -2.4 0 -3.5z m-365.9 -5.5 c-0.9 -0.9 -1.2 -0.7 -1.2 1.2 0 1.9 0.3 2.1 1.2 1.2 0.9 -0.9 0.9 -1.5 0 -2.4z m186.8 -23.9 c0 -2.8 0.5 -5.9 1 -7 0.7 -1.3 0.7 -1.9 0 -1.9 -0.5 0 -1 -0.7 -1 -1.5 0 -0.8 -0.4 -1.5 -1 -1.5 -0.6 0 -1 3.5 -1 8.5 0 5 0.4 8.5 1 8.5 0.6 0 1 -2.3 1 -5.1z m35.2 -5.6 c-0.2 -4 -0.8 -7.3 -1.3 -7.3 -1.1 0 -1.2 6.7 -0.2 13.5 0.9 7 2 2.7 1.5 -6.2z m-97.2 2.7 c0 -3.2 -0.4 -6.2 -1 -6.5 -0.6 -0.4 -1 2 -1 6.5 0 4.5 0.4 6.9 1 6.5 0.6 -0.3 1 -3.3 1 -6.5z m-27.6 0.4 c0.9 -6.7 0.8 -12 -0.3 -10.8 -1.1 1.1 -2.1 15.4 -1.1 15.4 0.4 0 1 -2.1 1.4 -4.6z m-13.9 -2.8 c0.5 -4 0.3 -7.1 -0.4 -8.2 -0.8 -1.5 -1 -0.5 -1.1 4.8 0 3.6 -0.3 7.3 -0.6 8.2 -0.3 0.9 -0.2 1.6 0.4 1.6 0.6 0 1.3 -2.9 1.7 -6.4z m85.9 2.5 c-2 -4.8 -2.4 -5 -2.4 -1.3 l0 3.2 -5.4 0 c-5.3 0 -5.5 -0.1 -5.8 -3 l-0.3 -2.9 -1.6 3.7 -1.5 3.7 9.2 0 9.2 0 -1.4 -3.4z m93.7 -4.4 c-0.2 -7.1 -0.8 -9.7 -2.2 -9.7 -0.6 0 -0.8 0.8 -0.5 1.8 0.2 0.9 0.7 4.8 1.1 8.5 0.8 8.4 1.9 8 1.6 -0.6z m-194.1 3.6 c0 -1.6 0.3 -4.4 0.6 -6.3 0.3 -2.2 0 -4.2 -0.8 -5.2 -1.1 -1.5 -1.3 -0.7 -1.4 6.2 0 4.4 0.3 8 0.8 8 0.4 0 0.8 -1.2 0.8 -2.7z m208.5 -4 c-0.8 -6.5 -2.7 -10.3 -5.3 -10.2 -1.3 0 -1.3 0.2 0.4 0.9 2.2 0.9 3.4 4.6 3.4 10.5 0 2.9 0.6 4.5 1.8 4.5 0.2 0 0.1 -2.6 -0.3 -5.7z m-222.2 -1.5 c0.3 -2.9 0.8 -6.3 1.2 -7.5 0.5 -1.4 0.3 -2.3 -0.3 -2.3 -1.4 0 -1.9 2 -2.7 9.9 -0.5 4.1 -0.4 6.1 0.3 5.7 0.5 -0.3 1.2 -2.9 1.5 -5.8z m179.6 2.5 c0 -2.9 -0.2 -3.3 -0.8 -1.8 -0.7 1.8 -0.4 5.5 0.5 5.5 0.2 0 0.4 -1.7 0.3 -3.7z m59.7 1.4 c-1.3 -1 -1.9 -3.2 -2.4 -8.3 -0.3 -3.8 -1.1 -8.2 -1.8 -9.9 l-1.3 -3 -0.1 3.2 c0 1.7 -0.6 3.4 -1.2 3.6 -0.8 0.4 -0.7 0.6 0.4 0.6 1.2 0.1 1.8 1.5 2.3 5.4 0.7 5.5 2.8 9.7 4.7 9.7 0.7 0 0.4 -0.6 -0.6 -1.3z m17 -3.4 c-0.3 -1 -0.8 -4 -1.2 -6.8 -0.3 -2.7 -1.1 -5.7 -1.6 -6.5 -0.7 -1.1 -0.8 -0.6 -0.4 1.6 0.3 1.7 0.8 5.4 1.2 8.3 0.4 2.8 1.1 5.1 1.6 5.1 0.5 0 0.7 -0.8 0.4 -1.7z m-296.1 -11.3 c0.9 -5.2 1.9 -10.3 2.2 -11.4 0.3 -1.2 0.1 -1.6 -0.6 -1.2 -0.6 0.4 -1.1 2 -1.1 3.6 0 1.6 -0.6 3.5 -1.2 4.2 -0.7 0.7 -1.3 3.3 -1.4 5.8 0 2.5 -0.4 5.9 -0.8 7.5 -0.6 2 -0.5 2.7 0.1 2 0.6 -0.5 1.8 -5.3 2.8 -10.5z m12.5 6.3 c-0.1 -3.1 -0.3 -3.5 -1.1 -2 -0.6 0.9 -0.7 2.6 -0.4 3.7 1 3 1.5 2.4 1.5 -1.7z m297.2 -3 c-0.3 -3.8 -0.9 -7.1 -1.5 -7.5 -1.8 -1.1 -1.9 -0.3 -0.7 5.9 2.1 10.6 2.8 11.1 2.2 1.6z m13.7 -2.2 c-1 -5.5 -4 -10.3 -5.5 -8.8 -0.3 0.3 0.4 1 1.5 1.7 1.2 0.6 2.1 1.7 2.1 2.5 0 2.5 2.2 11.7 2.7 11.2 0.2 -0.3 -0.1 -3.2 -0.8 -6.6z m-175.1 2.4 c-1.3 -3 -2.4 -3.2 -3.8 -0.6 -1.5 2.8 -1.3 3.1 2 3.1 2.8 0 2.9 -0.1 1.8 -2.5z m-166.1 -3.2 c-0.3 -1 -0.5 -0.2 -0.5 1.7 0 1.9 0.2 2.7 0.5 1.8 0.2 -1 0.2 -2.6 0 -3.5z m-11.9 -6.3 l0 -3.5 -0.9 4 c-0.4 2.2 -0.8 4.9 -0.7 6 0 1.6 0.2 1.5 0.8 -0.5 0.4 -1.4 0.8 -4.1 0.8 -6z m379.7 3.8 c-0.4 -2.4 -1.2 -5 -1.7 -5.8 -0.7 -1.1 -0.8 -0.8 -0.4 1 0.3 1.4 0.6 4 0.6 5.8 0 1.7 0.5 3.2 1.1 3.2 0.7 0 0.8 -1.4 0.4 -4.2z m-432 -9.5 c-0.3 -2.1 -1 -6.5 -1.4 -9.8 l-0.9 -6 -0.1 6.3 c-0.1 5.2 -0.4 6.2 -1.8 6.3 -1.4 0 -1.3 0.2 0.5 0.9 1.5 0.6 2.2 1.8 2.2 3.5 0 1.4 0.5 2.5 1 2.5 0.6 0 0.8 -1.5 0.5 -3.7z m474.4 0.5 c-0.1 -0.7 -0.5 -2.4 -0.9 -3.8 -0.7 -2.2 -0.8 -2.1 -0.9 1.3 -0.1 2 0.4 3.7 0.9 3.7 0.6 0 1 -0.6 0.9 -1.2z m-18.2 -5.5 c-0.3 -1 -0.5 -0.2 -0.5 1.7 0 1.9 0.2 2.7 0.5 1.8 0.2 -1 0.2 -2.6 0 -3.5z m-470.7 -1.3 c0 -1.1 -0.2 -2 -0.3 -2 -0.2 0 -1.2 0.9 -2.2 2 -1.8 1.9 -1.7 2 0.3 2 1.5 0 2.2 -0.6 2.2 -2z m485.2 -7 l-1.7 -6.5 -0.3 4.2 c-0.2 2.9 0.3 5 1.5 6.7 1 1.3 1.9 2.3 2 2.2 0.1 -0.1 -0.6 -3.1 -1.5 -6.6z m-170.2 -3.4 c37.2 -3.8 65.3 -8.7 100.5 -17.3 26.4 -6.5 23.4 -4.6 38.9 -23.9 51.1 -63.9 84.7 -146.7 97 -239.9 3.8 -28 4.6 -40 5.3 -71 0.5 -26.2 0.4 -28.5 -1.5 -36.2 -3.4 -13.3 -7.5 -20.6 -17.2 -30.4 -6 -6 -10.6 -9.6 -15.5 -12.1 -7.9 -4.1 -256.3 -81.9 -267.5 -83.8 -4.6 -0.8 -8.4 -0.8 -12.8 -0.1 -9.2 1.5 -250.3 78.7 -259.1 83 -13.9 6.8 -26.5 21.1 -31.7 36.1 -4.6 13.2 -5.2 31.2 -2.4 73.5 7.5 111.2 42.7 208.1 102.7 282.5 l10.8 13.4 8 2.4 c44.8 13 96.3 21.9 148.5 25.6 13.9 0.9 81.3 -0.3 96 -1.8z m-303 -1.6 c0 -1.2 -0.7 -2 -1.8 -2 -0.9 0 -2.3 0.9 -3 2 -1.1 1.8 -1 2 1.8 2 2.3 0 3 -0.4 3 -2z"/>
  <path d="M531 401.4 c-9.2 -1.9 -17.6 -5.1 -24.1 -9 -12.9 -7.7 -24.8 -25.2 -25.7 -37.6 l-0.4 -5.8 2.9 0 c1.7 0 4.5 0.7 6.3 1.6 3.1 1.6 3.7 1.6 9.9 -0.4 9.4 -2.9 27.8 -7.2 30.9 -7.2 2 0.1 3.4 1.1 5.4 4 3.5 5.1 7.8 7.2 15.9 7.8 11.4 0.8 18.9 -3.1 23.4 -12.1 6.1 -12.4 8.4 -12.9 28.1 -6.2 25.3 8.6 26 9.1 25.2 18.9 -0.6 7.5 -6.4 19 -13.4 26.5 -9.8 10.6 -21.1 16.6 -37.2 19.7 -9.6 1.8 -38.3 1.8 -47.2 -0.2z"/>
  <path d="M172.2 399.4 c-4.8 -3.3 -3.7 -7.7 16.2 -62.4 l18.4 -50.5 3.1 -0.3 c2.7 -0.3 4.2 0.6 9.5 5.5 7.2 6.7 14.9 11.5 22.7 14.2 5.2 1.9 5.4 2.1 5.7 5.8 0.1 2.2 -0.8 7 -2.3 11.2 -1.4 4.1 -2.5 7.8 -2.5 8.3 0 0.4 4.3 0.8 9.6 0.8 7.8 0 9.5 -0.3 9.1 -1.4 -2.1 -5.5 -4.7 -15.4 -4.7 -18 0 -3.1 0.2 -3.2 5.8 -4.4 3.1 -0.7 8.6 -2.6 12.2 -4.4 5.8 -2.8 7.7 -3.2 17.3 -3.6 l10.7 -0.4 0 3 c0 1.6 -2.1 7.3 -4.6 12.6 -5.6 11.8 -5.8 15.3 -1.5 24 1.7 3.5 3.1 7.9 3.1 9.8 0 4.4 -3.3 8.8 -6.6 8.8 -4.2 0 -9.1 2.7 -10.6 5.7 -1.1 2.3 -2.1 2.9 -5.8 3.3 -4 0.4 -4.6 0.8 -5.5 3.8 l-0.9 3.2 -20.2 0 -20.1 0 -3.3 10.3 c-1.7 5.6 -4.1 11.2 -5.3 12.5 -3.2 3.5 -7.9 4.2 -28.2 4.2 -15.6 0 -19.5 -0.3 -21.3 -1.6z"/>
  <path d="M288.3 399.9 l-3.3 -1 0 -10.2 c0 -14.9 -0.1 -14.8 15.8 -14.5 11.3 0.2 13.2 0 17.6 -2 2.7 -1.2 6.3 -2.2 8.1 -2.2 3.2 0 3.4 0.2 6.4 8.6 2 5.5 3.1 10.4 3.1 13.9 0 8.4 -0.4 8.5 -24.5 8.4 -11 0 -21.5 -0.5 -23.2 -1z"/>
  <path d="M341.8 399.9 c-1.6 -0.6 -3.1 -2.2 -3.7 -4.1 -1.2 -3.4 -1.6 -155 -0.5 -160.7 1.2 -6 1.7 -6.1 48.8 -6.1 45.1 0 51.8 0.5 62.1 5 11.8 5.1 19.8 14.3 23 26.5 2 7.7 2 24.3 0 32 -1.6 6 -7.3 15.7 -10.4 17.5 -1.1 0.6 -1.2 0.9 -0.3 1 0.7 0 3.7 2.3 6.6 5 6 5.7 10 13.4 11.7 22.7 1.7 8.7 0.6 25.6 -2.1 32.3 -6.3 15.8 -21.2 25.9 -42.5 29 -9.1 1.3 -89.1 1.2 -92.7 -0.1z m76.7 -44.3 c7.5 -3.2 8.3 -12.8 1.6 -17.3 -3.1 -2.1 -4.5 -2.3 -16.7 -2.3 l-13.4 0 0 10.5 0 10.5 12.5 0 c8.7 0 13.6 -0.4 16 -1.4z m-1.3 -67.5 c2.5 -2.7 2.9 -3.9 2.4 -6.5 -0.4 -1.7 -1.8 -4.2 -3.1 -5.6 -2.4 -2.3 -3.3 -2.5 -14.5 -2.8 l-12 -0.4 0 9.7 0 9.7 12.1 -0.4 12.1 -0.3 3 -3.4z"/>
  <path d="M520 332.5 c0 -4.1 2 -5.5 7.9 -5.5 l4.1 0 0 4.5 0 4.5 -6 0 -6 0 0 -3.5z"/>
  <path d="M509.3 319.6 c-1.9 -0.9 -4.6 -3.5 -6.3 -6.2 -2.6 -4.2 -3 -5.7 -3 -12.1 0 -10.9 1.3 -13.2 9.8 -17.1 6.3 -2.9 7.9 -3.3 14.4 -3 l7.3 0.3 0 18 0 18 -2.9 1.4 c-4.4 2.1 -15.4 2.5 -19.3 0.7z"/>
  <path d="M245.6 296.9 c-11.6 -1.3 -21.8 -5.7 -30 -13 -3.1 -2.6 -3.6 -3.7 -3.6 -7.4 0 -3.7 7.8 -27.5 13.4 -40.9 2.5 -5.9 5.4 -6.6 27.6 -6.6 20.3 0 24.8 0.8 26.9 4.9 0.7 1.1 5 12.5 9.6 25.3 9 24.5 10.5 31.8 6.6 31.8 -1.1 0 -7 1.6 -13.1 3.5 -9.8 3.1 -12.4 3.5 -20.8 3.4 -5.3 -0.1 -12.8 -0.5 -16.6 -1z"/>
  <path d="M581.3 290.5 c-1.3 -0.9 -3.4 -4 -4.8 -7 -3.2 -6.6 -9 -12 -14.7 -13.6 -2.6 -0.7 -7.1 -0.9 -11.5 -0.5 -6.7 0.6 -7.6 0.5 -13 -2.3 -7.3 -3.6 -9.9 -6.5 -11.1 -11.7 -0.7 -2.9 -2.2 -5.3 -5.1 -7.9 l-4.2 -3.8 0.3 -8.5 0.3 -8.5 4 -1.4 c14.1 -4.9 46.9 -5.7 62.2 -1.5 10.1 2.8 21 8.4 27.6 14.2 13.2 11.8 21.6 32.9 15.9 39.9 -2.3 2.9 -30.8 13.1 -38.2 13.8 -4.1 0.3 -6.1 0 -7.7 -1.2z"/>
 </g>
 <g fill="#ea9e1f">
  <path d="M363.2 671 c-3 -1.3 -4.3 -5.1 -3.5 -10.6 0.5 -3.7 0.3 -4.8 -1 -5.6 -2.2 -1.2 -2.3 -6.8 -0.2 -6.8 1 0 1.5 -1 1.5 -3.1 0 -2.9 0.2 -3 3.8 -2.7 3.1 0.3 3.7 0.8 4 3 0.2 1.9 1 2.8 2.5 3 1.7 0.2 2.3 1.1 2.5 3.6 0.3 2.9 0.1 3.2 -2.3 3.2 -2.5 0 -2.6 0.2 -2.3 4.8 0.3 3.9 0.6 4.7 2.3 4.7 1.4 0 2.1 0.8 2.3 2.4 0.6 4.3 -4.1 6.2 -9.6 4.1z"/>
  <path d="M379.7 670.2 c-1 -1 -1.7 -3.5 -1.7 -5.5 0 -4.7 2.8 -6.7 9.3 -6.7 4.4 0 4.8 -0.2 3.6 -1.6 -0.9 -1.1 -2.6 -1.5 -5.6 -1.2 -3.8 0.3 -4.5 0 -4.9 -1.9 -0.3 -1.2 -0.3 -2.6 0 -3.1 0.9 -1.5 9 -2.2 12.9 -1.1 5.1 1.4 6.7 4.9 6.7 14.9 l0 8 -4 0 c-2.2 0 -4 -0.5 -4 -1 0 -0.7 -0.6 -0.7 -1.9 0 -3.1 1.6 -8.6 1.2 -10.4 -0.8z m11.1 -4.4 c1.9 -1.9 1.4 -3.8 -1.1 -3.8 -2.8 0 -4.7 1.7 -4 3.6 0.6 1.7 3.5 1.8 5.1 0.2z"/>
  <path d="M406.6 669.8 c-0.3 -1.3 -0.6 -6.5 -0.6 -11.5 l0 -9.3 3.9 0 c2.3 0 4.1 0.5 4.4 1.3 0.3 0.9 0.9 0.7 2.4 -0.5 3 -2.7 4.1 -2.2 4.5 2.3 0.3 3.1 0 4.2 -1.2 4.6 -4 1.2 -4.5 2.1 -5 8.4 l-0.5 6.3 -3.6 0.4 c-3.1 0.3 -3.7 0 -4.3 -2z"/>
  <path d="M339.6 669.9 c-3.9 -0.9 -6.6 -2.5 -6.6 -3.8 0 -0.4 0.6 -1.5 1.3 -2.5 1.1 -1.6 1.5 -1.6 4.9 -0.1 7.4 3 8 0.9 0.8 -2.7 -5.8 -3 -7.3 -6.6 -4.3 -10.6 1.8 -2.4 2.7 -2.7 8.1 -2.7 7.5 0 10.1 1.8 7.7 5.2 -1.4 2.1 -1.7 2.1 -5 0.7 -4.1 -1.7 -4.5 -1.7 -4.5 -0.4 0 0.5 2.2 2.1 5 3.5 5.3 2.7 7 5.8 5.1 9.2 -2.2 4.2 -6.3 5.6 -12.5 4.2z"/>
  <path d="M450.2 669.2 c-6.3 -2 -11.1 -10.6 -9.7 -17.8 0.9 -5.1 6.8 -11 11.9 -11.9 4.1 -0.8 9.8 0.5 13.1 2.9 2 1.4 1.9 1.5 -0.9 4.5 -2.7 2.8 -3.1 2.9 -4.6 1.6 -2.3 -2.1 -6.6 -1.9 -9 0.5 -2.4 2.4 -2.6 7.7 -0.4 10.8 2 2.8 7.4 3 9.8 0.3 1.7 -1.9 1.8 -1.9 5.1 0.1 3.8 2.2 3.5 3.6 -1.1 7.1 -2.6 2 -10.6 3 -14.2 1.9z"/>
  <path d="M315 667.9 c-5.3 -1.1 -9 -5.9 -9 -11.5 0 -3.9 0.5 -5.1 3.4 -8 7.7 -7.7 19.6 -2.5 19.6 8.5 l0 3.1 -6.2 -0.6 c-3.5 -0.3 -6.9 -0.8 -7.6 -1 -0.8 -0.2 -1.2 0.3 -1 1.4 0.3 1.3 1.4 1.7 5 1.7 3.2 0 5.3 0.6 6.5 1.8 1.7 1.7 1.7 1.9 -0.2 3 -3.1 1.8 -6.7 2.4 -10.5 1.6z m5.8 -14.6 c-0.4 -2.2 -4.8 -3 -5.9 -1.1 -0.6 0.9 -0.2 1.5 1.4 2 3.8 1.1 4.9 0.9 4.5 -0.9z"/>
  <path d="M477 666.7 c-3.3 -1.6 -4.7 -5.8 -3.2 -9.2 1.4 -2.9 4.8 -4.5 9.9 -4.5 3 0 3.4 -0.2 2.3 -1.5 -1.4 -1.7 -5.3 -2 -8 -0.5 -1.5 0.8 -2.1 0.6 -3 -1.1 -1.8 -3.3 -0.5 -4.6 5.3 -5.9 4.5 -0.9 6.2 -0.8 9 0.4 4.1 1.7 5.5 5 5.9 14.6 l0.3 6.5 -4.5 0.1 c-2.5 0.1 -5.8 0.7 -7.3 1.3 -3.5 1.4 -3.6 1.4 -6.7 -0.2z m9.8 -7.4 c0.3 -1.9 -0.1 -2.3 -2.2 -2.3 -2.8 0 -4.1 1.4 -3.2 3.6 0.9 2.4 5 1.3 5.4 -1.3z"/>
  <path d="M293.3 665.3 c-2.6 -0.5 -2.6 -0.1 -1.3 -7.6 1.1 -6.9 0.6 -8.7 -2.5 -8.7 -2.7 0 -3.1 1 -4.1 9.4 l-0.7 5.8 -3.5 -0.5 c-1.9 -0.4 -3.7 -0.8 -3.9 -1.1 -0.3 -0.3 0.1 -5.4 0.8 -11.3 l1.4 -10.8 3.5 0.3 c1.9 0.2 3.9 0.7 4.3 1.2 0.5 0.4 2.8 0.5 5.2 0.3 3.5 -0.4 4.7 -0.1 6.5 1.7 2.1 2.1 2.2 2.8 1.6 9.9 -1.2 12.6 -1.1 12.6 -7.3 11.4z"/>
  <path d="M502.6 662.3 c-1.1 -4 -2.8 -18.4 -2.2 -19.8 0.7 -1.9 7.6 -2.1 7.6 -0.2 0 0.8 0.3 0.9 0.8 0.1 1.1 -1.6 4.8 -3.4 7.2 -3.4 4.2 0 6.5 3.9 7.8 13 1.3 9.2 1 10 -4 10 -2.4 0 -2.7 -0.4 -3.3 -4.7 -1 -7.6 -2 -9.8 -4.3 -10.1 -3 -0.5 -3.5 1.5 -2.4 9 1.1 6.9 0.6 7.8 -4 7.8 -1.7 0 -2.9 -0.6 -3.2 -1.7z"/>
  <path d="M256.4 660 c-3.9 -1.5 -6.4 -5.9 -6.4 -10.9 0 -5.3 1.8 -8.4 6 -10.6 3.9 -2 7.9 -1.9 11.6 0.4 5.6 3.4 7.4 15 2.1 13.8 -1.2 -0.3 -4.7 -0.9 -7.7 -1.3 l-5.5 -0.7 2 2.2 c1.6 1.9 2.7 2.2 5.7 1.7 3.1 -0.5 3.9 -0.3 4.8 1.5 1.3 2.3 1.3 2.2 -1.7 3.8 -2.5 1.3 -7.9 1.4 -10.9 0.1z m7.2 -15.8 c-1.2 -1.2 -2.1 -1.4 -3.3 -0.6 -2.5 1.6 -2.1 2.8 1.2 3.4 3.5 0.7 4.4 -0.5 2.1 -2.8z"/>
  <path d="M532 659.6 c0 -0.1 -0.9 -5.1 -2 -11.1 -1.1 -6 -1.9 -10.9 -1.7 -11 0.1 -0.1 1.9 -0.5 3.9 -0.9 l3.6 -0.7 1.1 5.3 c1.8 9.3 3.1 17.1 2.8 17.3 -0.4 0.3 -7.7 1.4 -7.7 1.1z"/>
  <path d="M236.8 656.3 c-1.6 -0.2 -2.8 -0.7 -2.8 -1.1 0 -0.4 1 -5.6 2.1 -11.5 l2.2 -10.8 3.1 0.7 c1.7 0.3 3.5 1 3.9 1.4 0.5 0.4 -0.1 5.4 -1.2 11 -1.2 5.7 -2.1 10.4 -2.1 10.6 0 0.4 -0.7 0.4 -5.2 -0.3z"/>
  <path d="M546.7 655.3 c-1.5 -5.2 -3.8 -18.6 -3.4 -19.7 0.6 -1.6 6.5 -2.7 7.3 -1.4 0.3 0.5 1.7 -0.1 3.1 -1.2 3.2 -2.5 6.3 -2.5 9.5 0 2 1.5 2.9 3.7 4.2 10.6 1 4.7 1.6 8.7 1.4 8.9 -0.2 0.2 -1.9 0.6 -4 1 l-3.6 0.7 -1.1 -5.9 c-1.4 -6.8 -2.2 -8.7 -4.4 -9.1 -2.9 -0.6 -3.6 2.9 -2.1 9.7 0.8 3.5 1.4 6.5 1.2 6.6 -0.2 0.2 -1.9 0.6 -4 1 -3 0.6 -3.7 0.4 -4.1 -1.2z"/>
  <path d="M208.7 650.2 c-5.3 -1.2 -6.6 -1.9 -6.3 -3.1 0.3 -0.9 1.7 -7 3.1 -13.6 1.5 -6.6 3.1 -12.4 3.5 -12.9 0.5 -0.5 4.8 0.1 9.9 1.4 12.6 3.1 16 7.4 10.7 13.7 -2.1 2.5 -2.2 3.1 -1 4.8 2 2.7 1.7 5.8 -0.7 8.9 -1.8 2.2 -2.7 2.6 -7.2 2.5 -2.9 -0.1 -8.2 -0.8 -12 -1.7z m13.1 -7.4 c0.3 -1.8 -5.8 -4.4 -8.3 -3.4 -2.1 0.8 -1.9 4.4 0.3 4.9 3.5 1 7.7 0.2 8 -1.5z m1 -11 c0.2 -1.2 -0.7 -2 -3.4 -2.7 -2.1 -0.6 -3.9 -0.9 -4 -0.8 -0.1 0.1 -0.5 1.2 -0.8 2.4 -0.5 1.6 -0.2 2.3 1.1 2.6 3.4 0.9 6.8 0.2 7.1 -1.5z"/>
  <path d="M575.3 645.5 c-3.3 -3.3 -3.5 -3.9 -3.1 -8.6 0.6 -5.9 3.4 -9.4 8.9 -11 7.4 -2.3 15.9 3.5 15.9 10.8 0 7.3 -5.5 12.3 -13.5 12.3 -4 0 -5.2 -0.5 -8.2 -3.5z m12.5 -4.7 c3.5 -3.5 -1.4 -10.2 -5.7 -7.8 -1.4 0.7 -2.1 2.1 -2.1 3.8 0 3.3 1.6 5.2 4.5 5.2 1.2 0 2.6 -0.5 3.3 -1.2z"/>
  <path d="M527 632.1 c0 -2.6 0.4 -3.1 2.4 -3.1 1.3 0 3.1 -0.3 3.9 -0.6 1 -0.3 1.6 0.4 2 2.3 0.6 3.4 0.8 3.3 -4.2 4 -4 0.6 -4.1 0.5 -4.1 -2.6z"/>
  <path d="M242.5 632.1 c-2.9 -0.6 -4.2 -2.8 -3.2 -5.6 0.4 -1 1.5 -1.1 4.2 -0.5 2 0.5 3.9 1 4.1 1.3 0.7 0.6 -0.7 5.7 -1.5 5.6 -0.3 -0.1 -1.9 -0.4 -3.6 -0.8z"/>
  <path d="M432.3 618.9 c-3.7 -1.1 -3.6 -0.9 -2.3 -4.3 0.8 -2.3 1.2 -2.5 3.5 -1.6 4 1.5 7.3 1.2 9.5 -1 2.9 -2.9 2.5 -4.6 -0.5 -2.6 -8.1 5.3 -18.3 -4.2 -14.5 -13.5 0.7 -1.6 2.2 -3.6 3.4 -4.4 2.3 -1.7 8.3 -2 10.6 -0.5 0.8 0.5 1.7 0.5 2 0 0.3 -0.4 2.1 -1 4 -1.2 l3.5 -0.3 0.8 9.5 c0.9 11.1 -0.1 16 -3.9 18.5 -3.1 2 -11.7 2.8 -16.1 1.4z m9.8 -14.9 c2.1 -1.2 2.5 -5 0.7 -6.8 -2.1 -2.1 -5.7 -1.4 -7 1.4 -1.1 2.3 -1 2.9 1.1 4.5 2.7 2.2 2.7 2.2 5.2 0.9z"/>
  <path d="M372.7 612.3 c0.4 -1 3.2 -7.6 6.3 -14.8 l5.6 -13 4 -0.3 4.1 -0.3 4.2 10.3 c2.4 5.7 5.2 12.4 6.2 15.1 l1.9 4.7 -4.4 0 c-3.6 0 -4.5 -0.4 -5.4 -2.5 -1 -2.2 -1.8 -2.5 -6.7 -2.5 -4.9 0 -5.7 0.3 -6.7 2.5 -0.9 2.1 -1.8 2.5 -5.4 2.5 -3.7 0 -4.2 -0.3 -3.7 -1.7z m18.3 -11.3 c0 -0.5 -0.5 -2.1 -1.2 -3.5 l-1.2 -2.6 -1.3 2.3 c-1.9 3.5 -1.6 4.8 1.2 4.8 1.4 0 2.5 -0.4 2.5 -1z"/>
  <path d="M409 602.5 l0 -11.5 4 0 c3.1 0 4 0.4 4 1.8 0 1 0.3 1.3 0.8 0.6 0.7 -1.1 4.5 -3.4 5.6 -3.4 0.3 0 0.6 2 0.6 4.5 0 3.3 -0.4 4.5 -1.5 4.5 -3.3 0 -5.5 3.8 -5.5 9.5 l0 5.5 -4 0 -4 0 0 -11.5z"/>
  <path d="M336.2 612 c-2.6 -1.1 -4.4 -5.2 -3.5 -7.7 1.4 -4.1 3.5 -5.3 9 -5.3 2.9 0 5.3 -0.5 5.3 -1 0 -1.6 -4.1 -2.8 -7.6 -2.3 -2.8 0.4 -3.2 0.2 -3.6 -2.2 -0.7 -3.3 0.8 -4 7.9 -4 3.7 0 6 0.6 8 2.1 2.7 2.1 2.8 2.4 2.8 11.5 l0 9.4 -3.3 0.3 c-1.8 0.2 -3.9 -0.1 -4.5 -0.7 -0.8 -0.6 -1.8 -0.6 -2.7 -0.1 -1.8 1.2 -4.8 1.2 -7.8 0z m9.6 -5.2 c2.1 -2.1 1.3 -3.8 -1.7 -3.8 -3.1 0 -4.6 2.1 -2.8 3.9 1.4 1.4 3 1.4 4.5 -0.1z"/>
  <path d="M319.5 601.3 c0.8 -12.4 1.1 -13.3 4 -13.3 4.6 0 5.5 0.9 5 5.3 -0.3 2.3 -0.7 7.2 -1.1 11 l-0.6 6.7 -4 0 -4 0 0.7 -9.7z"/>
  <path d="M460.9 608.2 c-3.6 -3.2 -4.9 -10 -2.7 -14.1 3 -5.6 10.7 -8.1 16.1 -5.2 2.9 1.6 5.7 6.1 5.7 9.4 0 2.3 -0.4 2.5 -7.5 3.2 -6.4 0.6 -7.4 0.9 -6.4 2.1 1.4 1.7 5.3 1.8 7.8 0.2 1.5 -0.9 2.3 -0.9 3.5 0.1 2.4 2 1.9 3.9 -1.4 5.6 -4.9 2.5 -11.4 2 -15.1 -1.3z m11 -11.7 c0.2 -0.3 0 -1 -0.6 -1.6 -1.6 -1.6 -5.7 -0.7 -6.1 1.5 -0.4 1.6 0 1.8 2.9 1.2 1.8 -0.3 3.5 -0.8 3.8 -1.1z"/>
  <path d="M305.5 602 c0.6 -7 0.5 -8.1 -1 -8.6 -2.7 -1.1 -4.4 1.7 -5.2 8.6 l-0.8 6.5 -4 -0.3 c-2.2 -0.2 -4.1 -0.5 -4.1 -0.5 -0.1 -0.1 0.3 -3.3 0.8 -7.2 0.8 -6.1 0.7 -7.1 -0.8 -8.2 -2.8 -2 -4.5 0.4 -5.3 7.6 -0.4 3.3 -1 6.3 -1.4 6.7 -0.3 0.4 -2.2 0.3 -4.2 0 -3.3 -0.7 -3.6 -1 -3.1 -3.4 0.3 -1.5 0.8 -5.6 1.1 -9.2 1 -9.8 1.1 -10 5.6 -10 2.1 0 3.9 0.4 3.9 0.9 0 0.5 2 0.6 4.4 0.4 3.5 -0.4 4.8 -0.1 6.3 1.4 1.8 1.8 2.3 1.9 4.4 0.7 3 -1.7 5.1 -1.7 8.3 -0.3 3.4 1.6 4.4 5.2 3.5 12.4 -0.4 3.3 -0.8 7 -0.8 8.3 -0.1 1.9 -0.6 2.2 -4.2 2.2 l-4.1 0 0.7 -8z"/>
  <path d="M485.7 604.3 c-0.4 -2.6 -0.9 -7.8 -1.3 -11.5 l-0.7 -6.8 4.2 0 c2.2 0 4.1 0.5 4.1 1 0 0.6 1.3 0.1 2.9 -1.1 3.5 -2.6 8.4 -1.9 10.6 1.5 1.1 1.7 2.9 12.3 3 18.1 0 0.5 -1.7 1.2 -3.7 1.6 -4.2 0.6 -4.7 0 -4.9 -5.9 -0.2 -6.4 -1.2 -8.7 -3.9 -8.7 -2.4 0 -2.5 0.2 -2.5 8 l0 8 -3.6 0.3 -3.6 0.3 -0.6 -4.8z"/>
  <path d="M516.6 602.8 c-0.8 -1.3 -1.7 -4.7 -2.1 -7.5 -0.4 -3.3 -1.2 -5.3 -2 -5.3 -0.7 0 -1.5 -1 -1.9 -2.2 -0.9 -3.6 -0.7 -4.8 0.9 -4.8 1.1 0 1.3 -0.8 0.9 -3 -0.5 -2.5 -0.3 -3 1.2 -3 1.1 0 2.8 -0.3 4 -0.6 1.7 -0.5 2.2 0 2.7 2.5 0.6 2.7 1 3.1 3 2.5 2 -0.4 2.6 -0.1 3.1 1.8 1 4 0.7 4.8 -2 4.8 -2.5 0 -2.6 0.2 -2 4.2 0.9 5.3 1.4 6 3.7 5.3 2.7 -0.9 3.9 4.3 1.4 6.2 -3.1 2.2 -9.2 1.7 -10.9 -0.9z"/>
  <path d="M253.4 600.6 c-10.1 -10.1 3.1 -25.8 15.2 -18 2.7 1.8 4.4 5.6 4.4 9.9 0 4 -0.5 4.1 -9 2.5 -5.9 -1.1 -6.3 -1 -5.4 1.5 0.6 1.4 1.5 1.6 5.1 1.2 3.6 -0.4 4.5 -0.1 5.4 1.5 1.7 3.2 -0.6 4.8 -6.8 4.8 -4.9 0 -5.9 -0.4 -8.9 -3.4z m12.1 -10.5 c1 -1.7 -3.6 -4.1 -5.7 -3 -2.6 1.4 -2.2 2.7 1 3.2 1.5 0.2 3 0.5 3.4 0.6 0.4 0 0.9 -0.3 1.3 -0.8z"/>
  <path d="M534.5 601.8 c-0.2 -0.7 -0.9 -4.7 -1.5 -8.8 -0.6 -4.1 -1.3 -8.7 -1.6 -10.1 -0.5 -2.4 -0.1 -2.7 3.1 -3.3 2.1 -0.4 3.9 -0.5 4.1 -0.3 0.3 0.2 1.3 5.3 2.3 11.2 1.3 7.5 1.5 10.8 0.7 11 -4.5 1.3 -6.7 1.4 -7.1 0.3z"/>
  <path d="M238.5 600.1 c-1.6 -0.4 -2.9 -1.2 -2.8 -1.9 0.2 -0.8 -0.4 -0.9 -2.4 -0.1 -5.4 2 -11.3 -1.4 -12.7 -7.4 -1.6 -6.8 4.2 -15.7 10.3 -15.7 1.6 0 4 0.9 5.4 2 l2.6 2.1 0.6 -2.6 c0.3 -1.4 0.7 -3.6 1 -5 0.5 -2.2 0.9 -2.4 3.8 -1.8 1.7 0.3 3.5 0.8 3.9 1.2 0.3 0.3 -0.4 6.2 -1.7 13.1 -3.1 15.8 -3.4 17 -4.3 16.9 -0.4 -0.1 -2 -0.4 -3.7 -0.8z m-1.2 -11.3 c1.2 -4.3 -2.7 -7.7 -6.3 -5.8 -1.1 0.6 -2 1.5 -2 2 0 0.4 -0.3 1.5 -0.6 2.3 -0.3 0.9 0.4 2.5 1.5 3.6 1.7 1.7 2.5 1.9 4.5 1 1.3 -0.6 2.7 -2 2.9 -3.1z"/>
  <path d="M548.7 598.4 c-0.4 -1.1 -1.3 -5.9 -2.2 -10.8 -1.4 -7.4 -1.4 -9 -0.3 -9.7 1.8 -1.2 6.8 -1.1 6.8 0.1 0 0.6 0.9 0.1 2 -1 2.6 -2.6 9 -2.7 11.3 -0.2 1.8 1.9 5.1 18.2 4 19.3 -0.5 0.3 -2.2 0.9 -4 1.2 l-3.1 0.6 -1.3 -7 c-1.3 -7.2 -3.1 -9.6 -5.9 -7.9 -1.1 0.7 -1.2 2.2 -0.3 8.2 0.5 4 0.9 7.4 0.8 7.6 -0.2 0.2 -1.8 0.5 -3.8 0.9 -2.8 0.4 -3.6 0.2 -4 -1.3z"/>
  <path d="M208.3 594.3 c-1.3 -0.2 -2.3 -0.7 -2.3 -1.1 0 -0.4 -2 -0.7 -4.4 -0.7 -5.1 0 -8.6 -2.5 -8.6 -6.2 0 -6.1 4.6 -9 11.2 -7.2 2.2 0.5 4.3 0.7 4.6 0.4 1.2 -1.2 -3.1 -3.5 -6.5 -3.5 -1.8 0 -3.3 -0.3 -3.3 -0.7 0 -0.5 -0.3 -1.8 -0.6 -3 -0.6 -2.2 -0.3 -2.3 4.6 -2.3 2.9 0 6.8 0.7 8.7 1.7 5.3 2.5 5.9 4.8 3.8 14.8 -1.8 8.9 -1.8 8.8 -7.2 7.8z m-1.2 -7.9 c1 -1.3 1 -1.7 -0.2 -2.5 -3.2 -2 -6.7 -0.4 -5.5 2.6 0.7 2 4 1.9 5.7 -0.1z"/>
  <path d="M576.6 592.4 c-4.6 -4.5 -2.3 -10.6 4.6 -12.4 2.4 -0.6 4.7 -1.2 5.3 -1.4 0.5 -0.1 0 -0.8 -1.2 -1.5 -1.8 -0.9 -3 -0.8 -5.9 0.4 -2.1 0.8 -3.8 1.4 -3.9 1.3 -0.1 -0.2 -0.7 -1.3 -1.4 -2.5 -1 -1.9 -0.8 -2.5 1.4 -3.9 2.9 -1.9 10.2 -2.9 13.9 -2 1.4 0.3 3.1 1.6 3.7 2.7 1.9 3.6 4.7 16.9 3.7 17.5 -0.5 0.3 -2.7 0.7 -4.9 0.8 -2.1 0.1 -4.4 0.7 -5.1 1.4 -1.7 1.7 -8.4 1.5 -10.2 -0.4z m11.2 -7.1 c0.2 -1.5 -0.2 -2.3 -1.1 -2.3 -2.9 0 -4.7 1.2 -4.7 3.2 0 3 5.4 2.1 5.8 -0.9z"/>
  <path d="M176.4 587 c-2.8 -1.1 -6.1 -5.4 -6.9 -8.9 -1.4 -6.5 5.1 -14.1 12 -14.1 3.5 0 8.9 3 10.4 5.8 0.9 1.7 0.6 2.2 -1.9 3.2 -2.6 1.1 -3.3 1 -4.9 -0.4 -2.5 -2.3 -4.8 -2 -6.7 0.9 -1.4 2.1 -1.5 3 -0.5 5.2 1 2.2 1.6 2.5 4.7 2 2.9 -0.5 3.7 -0.2 5.1 2 1.6 2.4 1.6 2.6 -0.2 3.9 -2.1 1.5 -7.8 1.7 -11.1 0.4z"/>
  <path d="M324.3 586.3 c-2.9 -0.4 -3.3 -0.8 -3.3 -3.4 0 -2.3 0.4 -2.9 2.3 -2.9 5 0 6.4 1 5.9 4.1 -0.2 1.6 -0.7 2.8 -1.1 2.7 -0.3 0 -2.1 -0.3 -3.8 -0.5z"/>
  <path d="M617.1 581.5 c-8.5 -7.2 -5.3 -21 5 -21 l4 0 -0.6 -3.5 c-0.4 -1.9 -0.7 -3.9 -0.8 -4.4 -0.2 -1.1 6.1 -3.2 6.9 -2.3 1.2 1.2 8.3 28.2 7.6 28.8 -1.5 1.4 -7.2 2.1 -7.2 0.8 0 -0.6 -1.2 0 -2.6 1.5 -3.5 3.4 -8.2 3.5 -12.3 0.1z m9.8 -5.5 c3.8 -2 3.3 -6.7 -0.9 -9 -1.5 -0.8 -2.4 -0.6 -4 1 -2.5 2.5 -2.5 4.5 0 7 2.3 2.3 2.5 2.3 4.9 1z"/>
  <path d="M158.8 581.8 c-2 -0.7 -2.8 -1.7 -2.8 -3.4 0 -2.6 -2.5 -4.1 -8.5 -5.1 -2.2 -0.3 -3.5 0.1 -4.8 1.5 -1.6 1.7 -2.3 1.8 -5.5 0.9 -2 -0.6 -3.8 -1.2 -4 -1.3 -0.2 -0.1 4.3 -5.8 9.9 -12.7 l10.2 -12.5 3.6 1 c2 0.6 3.7 1.1 3.8 1.2 0.1 0.1 0.9 6 1.8 13.1 0.8 7.2 1.7 14.2 2 15.8 0.5 3 -0.8 3.4 -5.7 1.5z m-3.8 -17.3 c0 -4.3 -1 -4.4 -3.8 -0.6 -2 2.7 -2 3 -0.4 3.4 3.7 1 4.2 0.7 4.2 -2.8z"/>
  <path d="M530 575.1 c0 -2.5 0.4 -2.9 3.7 -3.4 2 -0.4 3.8 -0.5 3.9 -0.4 0 0.1 0.4 1.4 0.7 2.8 0.6 2.2 0.3 2.8 -1.6 3.3 -5 1.3 -6.7 0.8 -6.7 -2.3z"/>
  <path d="M646.2 573.4 c-3 -2.1 -5.2 -6.6 -5.2 -10.8 0 -7.2 8.7 -13 15.4 -10.2 3.9 1.7 6.5 4.5 6.8 7.6 0.3 2.2 -0.4 2.6 -6.4 4.5 -6.7 2 -8.2 3.7 -3.9 4.3 1.3 0.2 3.3 -0.5 4.6 -1.8 2.1 -2 2.5 -2.1 5.1 -0.7 l2.8 1.5 -3.6 3.6 c-3.1 3.1 -4.2 3.6 -8.5 3.6 -2.8 0 -5.8 -0.7 -7.1 -1.6z m8.6 -12.8 c0.2 -0.3 0.1 -0.9 -0.3 -1.5 -1.1 -1.8 -4.4 -1.2 -5.6 1 -1.1 2.1 -1 2.2 2.2 1.5 1.8 -0.3 3.4 -0.8 3.7 -1z"/>
  <path d="M714.7 552.8 c-20.3 -43.4 -21.3 -45.3 -24.7 -47.5 -1.8 -1.3 -4.5 -2.3 -6 -2.3 -1.5 0 -9.4 2.8 -17.6 6.3 -19.1 8.2 -23.4 9.8 -23.4 9.1 0 -0.3 3 -5.1 6.7 -10.7 11.2 -17.1 20 -32.4 28.6 -49.9 4.5 -9.1 8.6 -16.7 9.1 -16.7 0.5 -0.1 8.8 -3.2 18.5 -7.1 11.5 -4.5 19.1 -7 21.7 -7 4.1 0 8.9 2.5 7.8 4.1 -0.3 0.5 0 0.8 0.7 0.7 0.7 -0.2 1.8 1.3 2.4 3.2 1 2.8 0.8 6.6 -0.6 18.5 -3 24.3 -2.6 32.5 2 39.8 3.1 5 7.6 8.9 24.2 21 16.7 12.2 18.8 14.9 17.5 22 -1 5.4 -4.6 8 -19.3 14.2 -14.7 6.1 -39.3 15.5 -40.6 15.5 -0.4 0 -3.6 -5.9 -7 -13.2z"/>
  <path d="M67.5 559 c-37 -14.1 -40.5 -16.3 -40.5 -24.5 0 -2.4 0.5 -5.5 1.1 -6.8 0.6 -1.4 8.8 -8 18.2 -14.8 17.8 -12.9 21.7 -16.9 24.9 -25.7 2.3 -6.2 2.2 -8.4 -0.3 -30.2 -1.3 -10.4 -1.9 -19.8 -1.5 -21.4 0.4 -1.6 2.1 -4.2 3.8 -5.8 4.5 -4.2 8.9 -3.8 22.9 1.8 l11.7 4.7 5.2 11.3 c7.2 15.6 20.6 39.5 30.6 54.7 4.6 7 8 12.7 7.5 12.7 -0.5 0 -7.5 -2.8 -15.5 -6.1 -16.3 -6.9 -19.8 -7.2 -24.4 -2.1 -1.3 1.5 -8.1 15 -15.2 30 -7 15 -13 27.5 -13.1 27.7 -0.2 0.1 -7.1 -2.3 -15.4 -5.5z"/>
  <path d="M362 562.4 c-30.7 -2.2 -62.8 -6.3 -89.5 -11.5 l-16 -3.1 -7.4 -6.6 c-20.4 -18.2 -45.9 -49.9 -63.3 -78.4 -26.6 -43.9 -47.5 -99.9 -57.7 -155.3 -6.8 -36.9 -9.4 -66.3 -9.5 -107.5 l-0.1 -30.5 2.6 -5.5 c5.9 -12.5 11.2 -16.1 35.9 -24 10.2 -3.2 65.1 -20.9 122 -39.2 l103.5 -33.2 12 0 12 0 65.5 20.6 c36 11.3 92.5 29 125.5 39.3 33 10.3 61.8 19.7 64.1 21 2.2 1.3 5.7 4.2 7.7 6.4 9.4 10.5 10.5 17.5 8.9 58.8 -1.6 41.1 -4.5 68.2 -10.8 100.2 -18 91.2 -60.4 171.6 -120 227.3 l-8.9 8.4 -18 3.2 c-43.4 7.6 -63.7 9.3 -112.5 9.7 -22.3 0.1 -43 0.1 -46 -0.1z m81 -81.9 l0 -21.5 -44 0 -44.1 0 0.3 21.5 0.2 21.5 43.8 0 43.8 0 0 -21.5z m-167.9 -72.7 c5.9 -5.4 8.2 -8.2 9 -11 0.9 -3.7 3.9 -5.4 3.9 -2.3 0 2.5 6.9 3.5 24 3.5 23 0 23.6 -0.6 17.9 -16.5 -2.2 -6.2 -3.5 -8.5 -4.5 -8.1 -0.9 0.4 -1.4 -0.2 -1.3 -1.7 0 -1.5 2 -3.7 6.4 -6.9 9.7 -7.2 9.5 -7.4 9.5 10.1 0 17.1 0.8 20.5 5.2 22 4 1.4 76.6 1.4 86.3 0.1 21.3 -3.1 36.1 -13.1 42.6 -29 1.7 -4.4 2.2 -7.6 2.3 -15.7 0.1 -9.7 0.2 -10.3 2.2 -10.3 2.6 0 8 5.7 8.6 9.3 0.6 2.9 -0.1 3.4 -2.1 1.5 -2.4 -2.2 -0.5 4.8 3.6 13.1 4.7 9.9 15.8 21.2 25.3 25.8 11.6 5.6 19.9 7.5 36.3 8 16.9 0.6 26.2 -0.5 37.7 -4.6 17.5 -6.2 32.1 -21.2 37.1 -37.9 1.5 -5 0.2 -8.3 -4 -10.2 -6.3 -2.9 -30.9 -11.1 -33.5 -11.2 -3.3 -0.1 -5.2 2 -9.1 9.9 -5 10.1 -15.8 14.6 -30.1 12.3 -8.5 -1.4 -11.8 -3.1 -15.2 -8 -1.5 -2.2 -3.3 -3.7 -3.9 -3.5 -0.8 0.2 -1.3 -0.4 -1.3 -1.4 0 -2.5 3 -3.1 12.8 -3 4.4 0.1 8.9 -0.4 10 -1 2.6 -1.4 8.3 -1.4 15.1 -0.1 4.2 0.8 5.8 0.7 8.1 -0.5 1.6 -0.8 3.8 -1.5 5 -1.5 1.3 0 2 -0.7 2 -2 0 -1.3 -0.7 -2 -1.8 -2 -1.9 0 -5.5 -3.4 -6.5 -6 -0.3 -0.8 -0.6 0 -0.6 1.8 -0.1 1.8 -0.7 3.4 -1.3 3.7 -0.7 0.2 -11.1 0.6 -23 1 -19.4 0.6 -21.8 0.5 -21.8 -0.9 0 -0.9 0.7 -1.6 1.5 -1.6 0.8 0 1.5 -0.7 1.5 -1.5 0 -0.8 -0.7 -1.5 -1.5 -1.5 -0.8 0 -1.5 -0.9 -1.5 -1.9 0 -2.2 3.9 -3.9 14.5 -6.6 9 -2.2 15.7 -1.5 24.2 2.5 3.6 1.6 6.8 2.8 7.1 2.5 1 -1 -3.1 -5.7 -6.1 -7 -1.8 -0.7 -8.2 -2.1 -14.4 -3.1 -9.1 -1.4 -12 -1.5 -15.1 -0.6 -2.2 0.7 -5.4 1.2 -7.2 1.2 -3.1 0 -3.2 -0.1 -1.7 -1.8 2.4 -2.6 2.5 -29.9 0.2 -30.8 -2.9 -1.1 -1.5 -2.4 2.6 -2.4 2.5 0 5.5 -0.9 7.5 -2.1 4.1 -2.5 8.3 -8.1 6.6 -8.7 -0.7 -0.2 -1.2 -1.4 -1.2 -2.7 0 -2.2 0.3 -2.3 9 -2.4 4.9 -0.1 10.8 0.3 13.1 0.9 5.4 1.5 11.3 7 14.4 13.6 1.4 3 3.7 6.1 5.1 7.1 2.5 1.6 3.1 1.5 18.6 -3.8 18.3 -6.1 21.5 -7.8 22.4 -11.4 1.4 -5.8 -8.2 -23.3 -17.3 -31.4 -6.7 -6 -18.9 -12.1 -29.3 -14.7 -11.2 -2.8 -38.4 -2.6 -49.5 0.5 -4.4 1.1 -8.5 2.8 -9.1 3.6 -1.6 2.1 -2.2 1.9 -2.6 -1 -0.3 -2.4 -0.5 -2.3 -3.8 2 -3.2 4.1 -3.8 4.5 -7.5 4.2 -4 -0.2 -4 -0.2 -4.3 -4.7 -0.2 -2.5 -0.7 -4.8 -1.1 -5.3 -1 -1 -10.1 9.8 -10.1 12.2 0 4.5 -2 7 -8.9 11 -3.8 2.3 -8.3 5.2 -9.9 6.6 -1.7 1.4 -3.4 2.5 -4 2.5 -0.5 0 -2.6 -2.7 -4.6 -5.9 -3.9 -6.5 -10.3 -11.8 -18.2 -15.2 -10.1 -4.3 -17.1 -4.9 -59 -4.9 -43.8 0 -44.6 0.1 -45.8 6.1 -0.3 1.7 -0.6 14.4 -0.6 28.1 l0 25 -7.2 -0.8 c-4 -0.4 -14.8 -0.7 -24 -0.6 -10.2 0.1 -16.8 -0.3 -16.8 -0.8 0 -0.6 0.7 -1 1.5 -1 0.8 0 1.5 -0.6 1.5 -1.3 0 -1.5 -16.4 -46.7 -18.1 -49.8 -2.1 -3.9 -6.7 -4.9 -23.9 -4.9 -19.4 0 -22.1 0.8 -24.8 7.2 -1 2.4 -4.5 11.7 -7.7 20.7 -4.8 13.5 -5.6 16.7 -4.7 18.2 1.1 1.7 0.9 1.9 -2.3 1.9 -3.5 0 -3.6 0.1 -2.1 2.2 0.9 1.2 1.6 3.8 1.6 5.6 0 2.9 -0.2 3.3 -1.5 2.2 -1.2 -1 -1.6 -1 -2 0.1 -21.9 60.1 -36.5 101.2 -36.5 102.8 0 4.3 3.3 5.1 20.5 5.1 17.4 0 22 -0.8 25.2 -4.2 1.2 -1.3 3.6 -6.9 5.3 -12.5 l3.3 -10.3 20.3 0 c17.5 0 20.4 -0.2 20.4 -1.5 0 -0.8 0.6 -1.5 1.4 -1.5 1.1 0 1.6 2.2 2.1 8.6 0.9 10.7 0 20.5 -2.9 30.5 -1.3 4.4 -2.1 7.9 -1.9 7.9 0.3 0 4 -3.2 8.4 -7.2z"/>
  <path d="M393 491.1 c-3.8 -1 -5.2 -4.6 -4.6 -11.6 0.8 -7.9 2.6 -9.5 11.1 -9.5 5.7 0 6.6 0.3 8.4 2.6 1.6 2.1 2.1 4.1 2.1 9 0 5.6 -0.3 6.5 -2.6 8.3 -2.7 2.2 -9.1 2.7 -14.4 1.2z"/>
  <path d="M386.9 359.3 c-0.2 -2.2 0.3 -12.9 0.7 -13.2 0.2 -0.2 4.3 0.8 9.1 2.2 4.9 1.4 13.3 3.3 18.8 4.2 5.5 0.9 10.1 1.8 10.3 2 0.9 0.8 -1.2 2.8 -4.4 4.1 -3.6 1.5 -34.3 2.1 -34.5 0.7z"/>
  <path d="M238.7 334.3 c-0.3 -0.5 1.1 -5.7 3 -11.7 3.3 -10.4 3.4 -11.1 1.7 -12.3 -1 -0.7 -1.5 -1.5 -1.2 -1.8 0.3 -0.4 5.1 -0.3 10.6 0.1 7.1 0.5 10.2 1.1 10.6 2 0.3 0.9 -0.2 1.4 -1.5 1.4 -2.3 0 -2.1 0.9 2.2 13.7 1.5 4.5 2.5 8.4 2.1 8.7 -0.8 0.9 -27 0.7 -27.5 -0.1z"/>
  <path d="M247.7 297.3 c-1.2 -1.2 -0.7 -3.3 0.7 -3.3 1.1 0 1.6 -2.3 2.1 -9.5 0.4 -5.2 1.1 -9.5 1.5 -9.5 0.5 0 1.1 2.3 1.4 5 0.3 2.8 0.9 7.3 1.2 10 0.4 3.3 1.1 5 2 5 0.8 0 1.4 0.7 1.4 1.5 0 1.1 -1.2 1.5 -4.8 1.5 -2.7 0 -5.2 -0.3 -5.5 -0.7z"/>
  <path d="M387 281.4 l0 -11.5 15 0.3 c14.7 0.3 15 0.3 17.6 3 2.1 2 2.8 3.9 3.2 8 l0.4 5.4 -5.4 1.7 c-5.2 1.6 -23.6 4.6 -28.5 4.7 -2.3 0 -2.3 -0.2 -2.3 -11.6z"/>
 </g>
 <g fill="#55afe0">
  <path d="M352.1 497 l0.2 -8 46.8 0 46.9 0 0 8 0 8 -47 0 -47.1 0 0.2 -8z"/>
  <path d="M352 464.8 l0 -8.8 47 0 47 0 0 8.8 0 8.7 -47 0 -47 0 0 -8.7z"/>
 </g>
 <g fill="#ffffff">
  <path d="M540 542.4 c34.9 -32.3 61.4 -67.6 83.4 -111.4 26.7 -53.1 42.2 -108.2 49.1 -175 2.5 -23.9 4 -69.8 2.7 -78.6 -1.8 -11.6 -7.6 -20.7 -16.6 -25.9 -2.3 -1.3 -31.1 -10.7 -64.1 -21 -33 -10.3 -89.5 -28 -125.5 -39.3 -64.9 -20.4 -65.6 -20.6 -74.5 -20.6 l-9 0 -103.5 33.3 c-56.9 18.2 -111.8 35.9 -122 39.1 -24.7 7.9 -30 11.5 -35.9 24 l-2.6 5.5 0.1 27.5 c0.1 29.1 1.2 46.4 4.5 72.5 11.4 88.8 42.6 167 90.8 227.5 10.9 13.6 26.4 30.3 36.7 39.4 4.9 4.4 9.4 8.4 9.9 8.9 0.6 0.6 -0.4 0.6 -2.5 0.2 -8.6 -1.7 -33.5 -7.8 -44 -10.8 l-11.5 -3.3 -10.8 -13.4 c-59.9 -74.3 -94.8 -170.4 -102.7 -282 -1.6 -24.2 -2.2 -55.1 -1.1 -64.2 2.7 -22.9 16 -42.5 35.2 -51.9 10.3 -5 251.1 -81.8 260.8 -83.2 5.3 -0.8 9.7 -0.7 15.2 0.1 11.2 1.6 260.2 79.3 269.4 84 4.9 2.5 9.5 6.1 15.5 12.1 9.7 9.8 13.8 17.1 17.2 30.4 1.9 7.7 2 10 1.5 39.2 -0.8 41.8 -3.8 72.6 -10.8 108.5 -15.2 78.1 -47.3 150.4 -91.3 205 -15.2 19 -13.7 17.7 -26.1 21.1 -8.9 2.3 -31 7.6 -44.5 10.5 -1.8 0.4 0.1 -1.8 7 -8.2z"/>
  <path d="M352.7 491.3 c-0.4 -0.3 -0.7 -5 -0.7 -10.4 0 -7.8 0.3 -9.8 1.6 -10.3 0.8 -0.3 22 -0.6 47 -0.5 l45.4 0 0 11 0 10.9 -46.3 0 c-25.5 0 -46.7 -0.3 -47 -0.7z m52.2 -4.8 c2 -2 2.1 -7.6 0.2 -9.3 -1.3 -1.1 -1.3 -1.2 -0.1 -0.6 1.1 0.5 1 0.2 -0.3 -1.3 -1.3 -1.5 -2.8 -2 -5.7 -1.8 -5 0.3 -7.3 2.1 -6.5 5.2 0.3 1.3 0.1 2.3 -0.5 2.3 -0.7 0 -0.9 0.9 -0.4 2.3 1 3.3 2.6 4.9 3.7 3.8 1.2 -1.2 3.9 -0.3 3.1 1 -0.9 1.5 4.8 0.1 6.5 -1.6z"/>
  <path d="M264.2 418.8 c-1.8 -1.8 -1.5 -4.8 1.5 -14.5 2.3 -7.8 2.6 -10.4 2.6 -22.8 -0.1 -7.7 0.3 -14.8 0.8 -15.7 0.6 -1.1 2.4 -1.8 5.1 -2 3.5 -0.2 4.5 -0.8 5.6 -3 1.5 -3.3 3.9 -4.7 9.4 -5.6 2.7 -0.5 4.8 -1.6 6.1 -3.4 l1.9 -2.6 -3.3 -6.8 c-2.8 -5.7 -3.4 -7.9 -3.3 -13.4 0 -5.6 0.7 -7.9 4.7 -16.4 l4.7 -9.9 -7.8 0.5 c-5.6 0.3 -9 1.2 -12.7 3 -16.5 8.4 -34.5 7.6 -51.4 -2.4 -9.2 -5.6 -17.4 -13.9 -21.5 -22 -2.8 -5.8 -3.3 -7.4 -2.1 -7.6 3 -0.7 8.6 2.1 14.2 6.8 10.7 9.1 21.3 12.9 38.8 13.7 10.6 0.5 11.4 0.3 22.4 -3.1 16.8 -5.3 34.8 -6.6 55.9 -4 l4.2 0.5 0 37.4 0 37.3 -5.2 4.3 c-2.9 2.3 -8.2 5.6 -11.8 7.3 -6.2 3 -7 3.1 -19.3 3.1 -15.6 0 -15.7 0.1 -15.7 11.4 0 11.7 -0.9 13.7 -9.7 21.7 -6.7 6.1 -11.1 9.4 -12.5 9.4 -0.2 0 -0.9 -0.5 -1.6 -1.2z"/>
  <path d="M409.5 355 c-5.5 -1 -12.7 -2.7 -16 -3.7 l-6 -1.9 -0.3 -8.2 -0.3 -8.2 16.3 0 c14.5 0 16.7 0.2 19.6 2 1.8 1.1 3.7 3.2 4.2 4.6 1.5 3.8 1.2 11.1 -0.5 14.4 -1.8 3.6 -2.8 3.6 -17 1z"/>
  <path d="M487.5 354 c-4.1 -1.7 -11.2 -10.3 -11.8 -14.3 -1.5 -9.7 -9.7 -21.6 -17.9 -25.8 -2.1 -1.1 -3.8 -2.4 -3.8 -2.9 0 -0.5 1.4 -1.9 3 -3.2 4.7 -3.5 9.8 -11.7 11.6 -18.8 2 -7.8 1.5 -22.1 -1 -29 l-1.7 -4.5 3 -2.6 c1.6 -1.5 6.1 -4.6 10.1 -6.9 7 -4.1 9 -6.6 9 -11.3 0 -1.3 3.1 -5.5 7.9 -10.7 l7.8 -8.5 0.9 8.4 c0.5 4.7 1.4 8.6 1.9 8.7 0.6 0.2 4.3 -3.7 8.3 -8.7 6.7 -8.1 9.2 -10.3 9.2 -8.1 0 0.5 -0.9 4.4 -2 8.7 -1.1 4.3 -2 9.7 -2 12 0 3.7 0.5 4.7 4.1 8 2.9 2.6 4.4 5 5.1 7.9 1.1 5.1 3.8 8.1 10.3 11.3 2.7 1.4 6.6 3.7 8.7 5 l3.7 2.5 -4.2 5 c-7 8.1 -9.3 9.1 -19.5 8.3 -8.5 -0.6 -8.9 -0.5 -15.8 2.8 -5.8 2.9 -7.3 4.1 -8.3 6.7 -2 5.8 -1.4 11.2 1.9 16.4 5 7.9 11.4 9.2 21.6 4.5 2.3 -1 6.3 -2.3 8.9 -2.9 4.8 -1.1 4.8 -1.1 27.2 3.1 6.4 1.2 9.8 3.8 11.4 8.7 1.5 4.8 4.7 8.2 7.6 8.2 2 0 2.3 0.4 1.8 2.3 -1.1 3.7 -4 7.1 -7.7 9.2 -3.4 1.8 -4.2 1.8 -12.2 0.7 -6.7 -1 -9.1 -1 -10.9 -0.1 -1.2 0.7 -6.7 1.3 -12.2 1.5 -9.8 0.2 -27.8 3.8 -39.4 7.9 -4.7 1.6 -11.4 1.9 -14.6 0.5z m80.8 -23 c0.9 -0.8 -11.2 -6.5 -15.8 -7.4 -1.7 -0.4 -6.2 0.2 -10.5 1.3 -7.6 2 -19 6.6 -19 7.6 0 0.9 44.3 -0.6 45.3 -1.5z"/>
  <path d="M387 292.6 c0 -1.4 0.2 -2.6 0.5 -2.6 4.5 0 24.3 -3.7 29.1 -5.4 l6.4 -2.4 0 2.9 c0 1.8 -1.1 4.1 -2.9 6.1 l-2.9 3.3 -15.1 0.3 -15.1 0.3 0 -2.5z"/>
 </g>
</svg>